<svg width="30" height="30" viewBox="0 0 30 30" fill="none" xmlns="http://www.w3.org/2000/svg">
<path d="M19.05 2.5H14.1823C11.977 2.49999 10.2302 2.49996 8.86317 2.6845C7.45626 2.87441 6.31752 3.27455 5.41949 4.1762C4.52146 5.07784 4.12291 6.22115 3.93376 7.63371C3.74996 9.00625 3.74999 10.76 3.75 12.9741V20.2711C3.75 22.1562 4.89994 23.7717 6.53396 24.449C6.44986 23.3123 6.44993 21.7171 6.45 20.39V14.247V14.128C6.44991 12.5259 6.44983 11.1455 6.59785 10.0401C6.75649 8.85548 7.11424 7.7199 8.03163 6.79883C8.94901 5.87774 10.0801 5.51856 11.26 5.35929C12.361 5.21068 13.7359 5.21075 15.3315 5.21084L15.45 5.21085H19.05L19.1685 5.21084C20.7641 5.21075 22.136 5.21068 23.237 5.35929C22.5784 3.68474 20.952 2.5 19.05 2.5Z" fill="#6B7280"/>
<path d="M8.25 14.2467C8.25 10.839 8.25 9.13512 9.30441 8.07647C10.3588 7.01782 12.0559 7.01782 15.45 7.01782H19.05C22.4441 7.01782 24.1411 7.01782 25.1956 8.07647C26.25 9.13512 26.25 10.839 26.25 14.2467V20.2709C26.25 23.6786 26.25 25.3825 25.1956 26.4411C24.1411 27.4997 22.4441 27.4997 19.05 27.4997H15.45C12.0559 27.4997 10.3588 27.4997 9.30441 26.4411C8.25 25.3825 8.25 23.6786 8.25 20.2709V14.2467Z" fill="#6B7280"/>
</svg>
