<svg width="18" height="18" viewBox="0 0 18 18" fill="none" xmlns="http://www.w3.org/2000/svg">
<g clip-path="url(#clip0_8_44)">
<path d="M14.9999 2.14285H2.14272C1.55098 2.14285 1.07129 2.62255 1.07129 3.21428V11.7857C1.07129 12.3774 1.55098 12.8571 2.14272 12.8571H14.9999C15.5916 12.8571 16.0713 12.3774 16.0713 11.7857V3.21428C16.0713 2.62255 15.5916 2.14285 14.9999 2.14285Z" fill="#06A7EA" stroke="white" stroke-linejoin="round"/>
<path d="M10.1786 15L9.91078 12.8571H7.23221L6.96436 15H10.1786Z" fill="white" stroke="white" stroke-linecap="round" stroke-linejoin="round"/>
<path d="M12.3213 15H4.82129" stroke="white" stroke-linecap="round" stroke-linejoin="round"/>
<path d="M15.5713 10.6786V11.786C15.5704 11.9372 15.5103 12.0824 15.4033 12.1893C15.296 12.2966 15.1498 12.3568 14.998 12.3573H9.43457C9.54595 12.189 9.60737 11.9907 9.60742 11.786C9.60742 11.5811 9.54642 11.3801 9.43262 11.2098C9.31885 11.0397 9.15686 10.9073 8.96777 10.8289C8.77852 10.7506 8.57005 10.7304 8.36914 10.7704C8.1683 10.8103 7.98367 10.9088 7.83887 11.0536C7.6941 11.1984 7.59561 11.383 7.55566 11.5838C7.51574 11.7847 7.53588 11.9933 7.61426 12.1825C7.63997 12.2445 7.67414 12.3019 7.71094 12.3573H2.14453C1.99277 12.3568 1.84659 12.2966 1.73926 12.1893C1.65874 12.1088 1.60522 12.0063 1.58301 11.8963L1.57129 11.784V10.6786H15.5713Z" fill="white" stroke="white"/>
</g>
<defs>
<clipPath id="clip0_8_44">
<rect width="17.1429" height="17.1429" fill="white"/>
</clipPath>
</defs>
</svg>
