<svg width="18" height="18" viewBox="0 0 18 18" fill="none" xmlns="http://www.w3.org/2000/svg">
<path d="M9.2855 13.5714C9.2855 13.9659 8.96572 14.2857 8.57122 14.2857C8.17672 14.2857 7.85693 13.9659 7.85693 13.5714C7.85693 13.1769 8.17672 12.8571 8.57122 12.8571C8.96572 12.8571 9.2855 13.1769 9.2855 13.5714Z" fill="#6B7280"/>
<path fill-rule="evenodd" clip-rule="evenodd" d="M6.5957 0.714295L6.63044 0.714302C6.63586 0.714295 6.64129 0.714295 6.64671 0.714302H10.4959C10.5013 0.714295 10.5067 0.714295 10.5121 0.714302L10.5469 0.714295C10.564 0.714295 10.5806 0.714293 10.5968 0.714302H10.7141C10.7259 0.714302 10.7375 0.71458 10.7491 0.715138C10.8106 0.71603 10.8654 0.717838 10.9171 0.721516C12.3351 0.822473 13.4631 1.95054 13.5641 3.36853C13.5714 3.47045 13.5713 3.58457 13.5713 3.73869V12.2943C13.5713 12.8789 13.5713 13.3615 13.5387 13.7544C13.5048 14.1624 13.432 14.5374 13.2496 14.8885C12.9786 15.4104 12.5531 15.8359 12.0312 16.1069C11.6801 16.2893 11.3051 16.3621 10.8971 16.396C10.5042 16.4286 10.0217 16.4286 9.43708 16.4286H7.70551C7.12091 16.4286 6.63837 16.4286 6.24553 16.396C5.83743 16.3621 5.46254 16.2893 5.11137 16.1069C4.58953 15.8359 4.16405 15.4104 3.89297 14.8885C3.71056 14.5374 3.6378 14.1624 3.60391 13.7544C3.57128 13.3615 3.57128 12.8789 3.5713 12.2943L3.57129 3.7387C3.57127 3.58458 3.57126 3.47045 3.57851 3.36853C3.67947 1.95054 4.80754 0.822473 6.22553 0.721516C6.27718 0.717838 6.33196 0.71603 6.39348 0.715138C6.40507 0.71458 6.41672 0.714302 6.42844 0.714302H6.54582C6.56198 0.714293 6.5786 0.714295 6.5957 0.714295ZM6.62237 2.14287C6.43 2.14287 6.37126 2.14332 6.32698 2.14648C5.61799 2.19696 5.05396 2.76099 5.00348 3.46999C5.00032 3.51427 4.99987 3.573 4.99987 3.76537V12.2643C4.99987 12.8864 5.00044 13.3094 5.02758 13.6362C5.054 13.9543 5.10186 14.1167 5.16071 14.23C5.29624 14.4909 5.50898 14.7037 5.76991 14.8392C5.88318 14.898 6.04559 14.9459 6.36376 14.9723C6.69048 14.9994 7.11343 15 7.73558 15H9.40701C10.0291 15 10.4521 14.9994 10.7789 14.9723C11.097 14.9459 11.2594 14.898 11.3727 14.8392C11.6336 14.7037 11.8464 14.4909 11.9819 14.23C12.0407 14.1167 12.0886 13.9543 12.115 13.6362C12.1421 13.3094 12.1427 12.8864 12.1427 12.2643V3.76537C12.1427 3.573 12.1423 3.51427 12.1391 3.46999C12.0886 2.76099 11.5246 2.19696 10.8156 2.14648C10.7714 2.14332 10.7126 2.14287 10.5202 2.14287C10.4724 2.14287 10.4671 2.14299 10.4635 2.14313C10.3717 2.14661 10.2848 2.18532 10.2209 2.25121C10.2183 2.25379 10.2146 2.25769 10.1827 2.29319L9.83365 2.68103L9.82472 2.69088C9.82051 2.69545 9.81229 2.70436 9.80179 2.71492C9.77943 2.73737 9.73929 2.77528 9.68222 2.81288C9.61379 2.85792 9.53851 2.89146 9.45929 2.91216C9.39315 2.92944 9.33808 2.93394 9.30651 2.93551C9.29158 2.93624 9.27943 2.93641 9.27329 2.93647L9.26001 2.93652H7.88265L7.86929 2.93647C7.86315 2.93641 7.85101 2.93624 7.83615 2.93551C7.80451 2.93394 7.74943 2.92944 7.68329 2.91216C7.60408 2.89146 7.52879 2.85792 7.46036 2.81288C7.40329 2.77528 7.36315 2.73737 7.34079 2.71492C7.33036 2.70436 7.32208 2.69545 7.31786 2.69088L7.30893 2.68103L6.9599 2.29319C6.92795 2.25769 6.92428 2.25379 6.92176 2.25121C6.85778 2.18532 6.77087 2.14661 6.67909 2.14313C6.67548 2.14299 6.67013 2.14287 6.62237 2.14287Z" fill="#6B7280"/>
</svg>
